HIERARCHY
ROOT root
{
	OFFSET	0	13.1	24.9
	CHANNELS 6  Xposition Yposition Zposition Xrotation Yrotation Zrotation
	JOINT spine_1
	{
		OFFSET	0	9.99999	0
		CHANNELS 3  Xrotation Yrotation Zrotation
		JOINT spine_2
		{
			OFFSET	0	112	-10
			CHANNELS 3  Xrotation Yrotation Zrotation
			JOINT spine_3
			{
				OFFSET	0	206.5	19.3
				CHANNELS 3  Xrotation Yrotation Zrotation
				JOINT spine_4
				{
					OFFSET	0	110.4	14.6
					CHANNELS 3  Xrotation Yrotation Zrotation
					JOINT neck_1
					{
						OFFSET	0	71.8	-50.3
						CHANNELS 3  Xrotation Yrotation Zrotation
						JOINT neck_2
						{
							OFFSET	0	86.2	-25.8
							CHANNELS 3  Xrotation Yrotation Zrotation
							JOINT head_ee
							{
								OFFSET	0	179.8	-8.7
								CHANNELS 3  Xrotation Yrotation Zrotation
								End Site
								{
									OFFSET	1	0	0
								}
							}
						}
					}
					JOINT left_clavicle
					{
						OFFSET	-43.2	22.4	-70.8
						CHANNELS 3  Xrotation Yrotation Zrotation
						JOINT left_shoulder
						{
							OFFSET	-93.9	-5.79999	48.7
							CHANNELS 3  Xrotation Yrotation Zrotation
							JOINT left_elbow
							{
								OFFSET	-291.4	-30.8	15.2
								CHANNELS 3  Xrotation Yrotation Zrotation
								JOINT left_lowarm_twist
								{
									OFFSET	-110.7	-3.89999	13.6
									CHANNELS 3  Xrotation Yrotation Zrotation
									JOINT left_hand
									{
										OFFSET	-110.7	-3.89999	13.6
										CHANNELS 3  Xrotation Yrotation Zrotation
										JOINT left_ee
										{
											OFFSET	-80.8	-5.10001	12.1
											CHANNELS 3  Xrotation Yrotation Zrotation
											End Site
											{
												OFFSET	1	0	0
											}
										}
									}
								}
							}
						}
					}
					JOINT right_clavicle
					{
						OFFSET	43.2	22.4	-70.8
						CHANNELS 3  Xrotation Yrotation Zrotation
						JOINT right_shoulder
						{
							OFFSET	93.9	-5.79999	48.7
							CHANNELS 3  Xrotation Yrotation Zrotation
							JOINT right_elbow
							{
								OFFSET	291.4	-30.8	15.2
								CHANNELS 3  Xrotation Yrotation Zrotation
								JOINT right_lowarm_twist
								{
									OFFSET	110.7	-3.89999	13.6
									CHANNELS 3  Xrotation Yrotation Zrotation
									JOINT right_hand
									{
										OFFSET	110.7	-3.89999	13.6
										CHANNELS 3  Xrotation Yrotation Zrotation
										JOINT right_ee
										{
											OFFSET	80.8	-5.10001	12.1
											CHANNELS 3  Xrotation Yrotation Zrotation
											End Site
											{
												OFFSET	1	0	0
											}
										}
									}
								}
							}
						}
					}
				}
			}
		}
	}
	JOINT left_hip
	{
		OFFSET	-82.8	-127.5	0.300001
		CHANNELS 3  Xrotation Yrotation Zrotation
		JOINT left_knee
		{
			OFFSET	-28.2	-396.7	2.2
			CHANNELS 3  Xrotation Yrotation Zrotation
			JOINT left_ankle
			{
				OFFSET	-11.7	-411.3	35.4
				CHANNELS 3  Xrotation Yrotation Zrotation
				JOINT left_toes
				{
					OFFSET	0	-60	-88.6
					CHANNELS 3  Xrotation Yrotation Zrotation
					JOINT left_foot_ee
					{
						OFFSET	-22.5	-16.5	-42.2
						CHANNELS 3  Xrotation Yrotation Zrotation
						End Site
						{
							OFFSET	1	0	0
						}
					}
				}
			}
		}
	}
	JOINT right_hip
	{
		OFFSET	82.8	-127.5	0.300001
		CHANNELS 3  Xrotation Yrotation Zrotation
		JOINT right_knee
		{
			OFFSET	28.2	-396.7	2.2
			CHANNELS 3  Xrotation Yrotation Zrotation
			JOINT right_ankle
			{
				OFFSET	11.7	-411.3	35.4
				CHANNELS 3  Xrotation Yrotation Zrotation
				JOINT right_toes
				{
					OFFSET	0	-60	-88.6
					CHANNELS 3  Xrotation Yrotation Zrotation
					JOINT right_foot_ee
					{
						OFFSET	22.5	-16.5	-42.2
						CHANNELS 3  Xrotation Yrotation Zrotation
						End Site
						{
							OFFSET	1	0	0
						}
					}
				}
			}
		}
	}
}
MOTION
Frames: 6
Frame Time: 0.02
1372.05 701.618 -1475.22 -8.51398560991 20.05447246 4.55200452028 3.16561 -0.272317 -0.470198 3.1657 -0.241845 -0.486572 3.16773 -0.163076 -0.518312 3.16744 -0.242886 -0.486053 -11.335 6.8559 -0.377695 -11.4151 13.218 1.50277 -0.0 0.0 -0.0 8.19603 -11.3528 15.888 1.82674 7.30809 61.5372 3.17368 -57.5281 1.74246 53.839 -1.25715 -6.51149 3.22276 1.25774 22.5906 -0.0 0.0 -0.0 11.1985 18.0004 -22.2337 -33.7677 4.43492 -68.7595 0.246107 6.95103 -0.014947 10.0759 -0.244564 1.26222 -0.311821 4.94724 4.20101 0.0 0.0 0.0 -2.61991 -14.1929 12.4929 -4.92618 0.171249 0.736396 41.188 24.3677 -5.25975 -1.00596 0.0 0.0 -0.0 0.0 -0.0 42.3649 9.67321 -13.8758 -1.13561 -0.0450904 -0.168438 -14.4203 -8.83661 -2.16048 -0.46686 0.0 0.0 0.0 0.0 0.0 
1332.49277045 699.887 -1526.51227368 -8.16768592711 25.4358780191 4.88357948235 3.02011 -0.324555 -0.423281 3.02016 -0.296963 -0.443075 3.02246 -0.223072 -0.4845 3.02225 -0.296789 -0.443191 -11.1625 6.67213 -0.875107 -11.2366 13.1896 0.952316 -0.0 0.0 -0.0 7.59842 -8.77032 14.6968 -5.3362 3.93266 62.8623 3.05024 -56.4911 1.63893 51.208 -1.05664 -6.24067 3.13542 1.85783 22.1938 -0.0 0.0 -0.0 12.1087 19.524 -24.2167 -32.0906 3.29628 -67.6244 0.377285 10.5864 -0.0349547 11.0202 -0.256031 1.38229 -0.544772 3.87753 5.31511 0.0 0.0 0.0 -4.98205 -13.4687 12.8219 -5.84179 0.196063 0.874717 42.1438 25.1122 -5.37287 -0.529411 0.0 0.0 -0.0 0.0 -0.0 42.0804 11.0626 -12.5515 -10.3517 -0.285869 -1.56077 -14.6414 0.299681 -2.22156 1.80427 -0.0 -0.0 0.0 0.0 0.0 
1316.47694182 698.835 -1544.73619059 -8.69904631129 26.5590862875 4.6032310873 2.98233 -0.259621 -0.385847 2.98239 -0.234543 -0.401585 2.98403 -0.167714 -0.433766 2.98384 -0.234114 -0.401835 -11.3252 6.50219 -1.15172 -11.399 13.0537 0.657441 -0.0 0.0 -0.0 7.68278 -8.28689 14.8887 -7.25687 2.68469 63.153 2.98623 -55.93 1.58572 50.4736 -1.00293 -6.16347 3.08611 2.12754 21.9432 -0.0 0.0 -0.0 12.2373 19.5822 -24.5085 -31.5896 3.25221 -67.0705 0.416203 11.6499 -0.0424596 11.221 -0.258214 1.40785 -0.598633 3.80729 5.64889 0.0 0.0 0.0 -5.02499 -12.6225 13.2997 -6.20063 0.205185 0.929031 42.479 25.6742 -5.42336 -0.310331 0.0 0.0 -0.0 0.0 -0.0 42.1433 11.701 -12.3498 -13.1619 -0.314425 -1.99098 -16.0746 2.30604 -2.45701 1.93173 -0.0 -0.0 0.0 0.0 0.0 
1300.95814497 705.158 -1568.07013131 -8.31999744391 27.6970405228 3.8847233613 2.95185 -0.00647316 -0.024439 2.95185 -0.00490492 -0.0248014 2.95185 -0.000885006 -0.0252662 2.95185 -0.00486423 -0.0248094 -11.4495 6.64415 -1.68217 -11.5289 13.6706 0.200166 -0.0 0.0 -0.0 7.70664 -7.07288 14.9676 -10.9555 2.31202 62.8253 2.67983 -53.0003 1.33631 49.1625 -0.909507 -6.02399 3.13154 1.65701 22.0878 -0.0 0.0 -0.0 12.3273 19.6236 -24.7131 -30.1132 3.83022 -67.2876 0.536352 14.8795 -0.0700388 11.3613 -0.259685 1.42571 -0.678341 3.0166 5.84502 0.0 0.0 0.0 -5.35568 -11.9124 13.0735 -9.05407 0.26557 1.3627 42.5691 25.5817 -5.42825 0.42912 -0.0 -0.0 -0.0 0.0 -0.0 41.677 12.6955 -12.2083 -16.1554 -0.321605 -2.45016 -16.7685 4.86703 -2.58944 1.76929 -0.0 -0.0 0.0 0.0 0.0 
1278.07515094 708.35 -1588.58945568 -8.00709010397 29.0493553423 3.53531064795 2.98902 0.164372 0.18172 2.98903 0.152476 0.191811 2.98954 0.12006 0.213602 2.98951 0.152288 0.19196 -11.6059 6.93391 -1.80719 -11.6962 14.3028 0.180806 -0.0 0.0 -0.0 7.7365 -5.47605 15.0569 -14.1695 1.6327 63.5864 2.48847 -50.9424 1.18555 48.0074 -0.829883 -5.89938 3.16542 1.06612 22.1008 -0.0 0.0 -0.0 12.1053 19.0581 -24.2395 -28.9446 4.36604 -67.9691 0.672593 18.4273 -0.109102 11.459 -0.260684 1.43814 -0.762046 2.59097 6.22545 0.0 0.0 0.0 -4.43292 -11.0655 13.7427 -11.1288 0.295877 1.67959 41.9739 25.257 -5.36228 0.838438 -0.0 -0.0 -0.0 0.0 -0.0 40.1792 13.7078 -11.9754 -18.7636 -0.308302 -2.85008 -17.1993 6.64571 -2.67807 1.66736 -0.0 -0.0 0.0 0.0 0.0 
1279.95112795 708.35 -1590.11866624 -7.93593353563 28.1167273684 3.38658693035 2.98902 0.164372 0.18172 2.98903 0.152476 0.191811 2.98954 0.12006 0.213602 2.98951 0.152288 0.19196 -11.6059 6.93391 -1.80719 -11.6962 14.3028 0.180806 -0.0 0.0 -0.0 7.7365 -5.47605 15.0569 -14.1695 1.6327 63.5864 2.48847 -50.9424 1.18555 48.0074 -0.829883 -5.89938 3.16542 1.06612 22.1008 -0.0 0.0 -0.0 12.1053 19.0581 -24.2395 -28.9446 4.36604 -67.9691 0.672593 18.4273 -0.109102 11.459 -0.260684 1.43814 -0.762046 2.59097 6.22545 0.0 0.0 0.0 -4.43292 -11.0655 13.7427 -11.1288 0.295877 1.67959 41.9739 25.257 -5.36228 0.838438 -0.0 -0.0 -0.0 0.0 -0.0 40.1792 13.7078 -11.9754 -18.7636 -0.308302 -2.85008 -17.1993 6.64571 -2.67807 1.66736 -0.0 -0.0 0.0 0.0 0.0 
